<?xml version="1.0" encoding="UTF-8" standalone="no"?>
<!-- Created with Inkscape (http://www.inkscape.org/) -->

<svg
   xmlns:i="http://ns.adobe.com/AdobeIllustrator/10.0/"
   xmlns:dc="http://purl.org/dc/elements/1.1/"
   xmlns:cc="http://creativecommons.org/ns#"
   xmlns:rdf="http://www.w3.org/1999/02/22-rdf-syntax-ns#"
   xmlns:svg="http://www.w3.org/2000/svg"
   xmlns="http://www.w3.org/2000/svg"
   xmlns:sodipodi="http://sodipodi.sourceforge.net/DTD/sodipodi-0.dtd"
   xmlns:inkscape="http://www.inkscape.org/namespaces/inkscape"
   width="2cm"
   height="3cm"
   viewBox="0 0 20 29.999999"
   version="1.1"
   id="svg8"
   inkscape:version="0.92.1 r15371"
   sodipodi:docname="chaveiro-2x3.svg"
   inkscape:export-filename="/home/glichti/Dropbox/debian_day/chaveiro-2x3.png"
   inkscape:export-xdpi="96"
   inkscape:export-ydpi="96">
  <defs
     id="defs2">
    <inkscape:path-effect
       bendpath-nodetypes="cc"
       vertical="false"
       scale_y_rel="false"
       prop_scale="1"
       bendpath="m -5424.4721,25679.516 c -47.7004,70.758 208.3815,111.327 210.2834,2.912"
       is_visible="true"
       id="path-effect4298"
       effect="bend_path" />
    <inkscape:perspective
       id="perspective10"
       inkscape:persp3d-origin="0.49999999 : 0.33333332 : 1"
       inkscape:vp_z="0.99999998 : 0.49999998 : 1"
       inkscape:vp_y="0 : 999.99997 : 0"
       inkscape:vp_x="0 : 0.49999998 : 1"
       sodipodi:type="inkscape:persp3d" />
    <inkscape:perspective
       sodipodi:type="inkscape:persp3d"
       inkscape:vp_x="0 : 0.49999998 : 1"
       inkscape:vp_y="0 : 999.99997 : 0"
       inkscape:vp_z="0.99999998 : 0.49999998 : 1"
       inkscape:persp3d-origin="0.49999999 : 0.33333332 : 1"
       id="perspective2996" />
    <inkscape:perspective
       sodipodi:type="inkscape:persp3d"
       inkscape:vp_x="0 : 0.49999998 : 1"
       inkscape:vp_y="0 : 999.99997 : 0"
       inkscape:vp_z="0.99999998 : 0.49999998 : 1"
       inkscape:persp3d-origin="0.49999999 : 0.33333332 : 1"
       id="perspective3174" />
    <inkscape:perspective
       sodipodi:type="inkscape:persp3d"
       inkscape:vp_x="0 : 0.49999998 : 1"
       inkscape:vp_y="0 : 999.99997 : 0"
       inkscape:vp_z="0.99999998 : 0.49999998 : 1"
       inkscape:persp3d-origin="0.49999999 : 0.33333332 : 1"
       id="perspective3183" />
    <inkscape:perspective
       sodipodi:type="inkscape:persp3d"
       inkscape:vp_x="0 : 0.49999998 : 1"
       inkscape:vp_y="0 : 999.99997 : 0"
       inkscape:vp_z="0.99999998 : 0.49999998 : 1"
       inkscape:persp3d-origin="0.49999999 : 0.33333332 : 1"
       id="perspective4281" />
    <inkscape:perspective
       sodipodi:type="inkscape:persp3d"
       inkscape:vp_x="0 : 0.49999998 : 1"
       inkscape:vp_y="0 : 999.99997 : 0"
       inkscape:vp_z="0.99999998 : 0.49999998 : 1"
       inkscape:persp3d-origin="0.49999999 : 0.33333332 : 1"
       id="perspective4453" />
    <inkscape:perspective
       sodipodi:type="inkscape:persp3d"
       inkscape:vp_x="0 : 0.49999998 : 1"
       inkscape:vp_y="0 : 999.99997 : 0"
       inkscape:vp_z="0.99999998 : 0.49999998 : 1"
       inkscape:persp3d-origin="0.49999999 : 0.33333332 : 1"
       id="perspective4609" />
    <inkscape:perspective
       sodipodi:type="inkscape:persp3d"
       inkscape:vp_x="0 : 0.49999998 : 1"
       inkscape:vp_y="0 : 999.99997 : 0"
       inkscape:vp_z="0.99999998 : 0.49999998 : 1"
       inkscape:persp3d-origin="0.49999999 : 0.33333332 : 1"
       id="perspective4925" />
    <inkscape:perspective
       sodipodi:type="inkscape:persp3d"
       inkscape:vp_x="0 : 0.49999998 : 1"
       inkscape:vp_y="0 : 999.99997 : 0"
       inkscape:vp_z="0.99999998 : 0.49999998 : 1"
       inkscape:persp3d-origin="0.49999999 : 0.33333332 : 1"
       id="perspective5252" />
    <inkscape:perspective
       sodipodi:type="inkscape:persp3d"
       inkscape:vp_x="0 : 0.49999998 : 1"
       inkscape:vp_y="0 : 999.99997 : 0"
       inkscape:vp_z="0.99999998 : 0.49999998 : 1"
       inkscape:persp3d-origin="0.49999999 : 0.33333332 : 1"
       id="perspective5719" />
    <inkscape:perspective
       sodipodi:type="inkscape:persp3d"
       inkscape:vp_x="0 : 0.49999998 : 1"
       inkscape:vp_y="0 : 999.99997 : 0"
       inkscape:vp_z="0.99999998 : 0.49999998 : 1"
       inkscape:persp3d-origin="0.49999999 : 0.33333332 : 1"
       id="perspective6147" />
    <inkscape:perspective
       sodipodi:type="inkscape:persp3d"
       inkscape:vp_x="0 : 0.49999998 : 1"
       inkscape:vp_y="0 : 999.99997 : 0"
       inkscape:vp_z="0.99999998 : 0.49999998 : 1"
       inkscape:persp3d-origin="0.49999999 : 0.33333332 : 1"
       id="perspective6236" />
    <inkscape:perspective
       sodipodi:type="inkscape:persp3d"
       inkscape:vp_x="0 : 0.49999998 : 1"
       inkscape:vp_y="0 : 999.99997 : 0"
       inkscape:vp_z="0.99999998 : 0.49999998 : 1"
       inkscape:persp3d-origin="0.49999999 : 0.33333332 : 1"
       id="perspective6291" />
    <inkscape:perspective
       sodipodi:type="inkscape:persp3d"
       inkscape:vp_x="0 : 0.49999998 : 1"
       inkscape:vp_y="0 : 999.99997 : 0"
       inkscape:vp_z="0.99999998 : 0.49999998 : 1"
       inkscape:persp3d-origin="0.49999999 : 0.33333332 : 1"
       id="perspective7149" />
    <inkscape:perspective
       sodipodi:type="inkscape:persp3d"
       inkscape:vp_x="0 : 0.49999998 : 1"
       inkscape:vp_y="0 : 999.99997 : 0"
       inkscape:vp_z="0.99999998 : 0.49999998 : 1"
       inkscape:persp3d-origin="0.49999999 : 0.33333332 : 1"
       id="perspective7735" />
    <inkscape:perspective
       sodipodi:type="inkscape:persp3d"
       inkscape:vp_x="0 : 0.49999998 : 1"
       inkscape:vp_y="0 : 999.99997 : 0"
       inkscape:vp_z="0.99999998 : 0.49999998 : 1"
       inkscape:persp3d-origin="0.49999999 : 0.33333332 : 1"
       id="perspective8267" />
    <inkscape:perspective
       sodipodi:type="inkscape:persp3d"
       inkscape:vp_x="0 : 0.49999998 : 1"
       inkscape:vp_y="0 : 999.99997 : 0"
       inkscape:vp_z="0.99999998 : 0.49999998 : 1"
       inkscape:persp3d-origin="0.49999999 : 0.33333332 : 1"
       id="perspective8579" />
    <inkscape:perspective
       sodipodi:type="inkscape:persp3d"
       inkscape:vp_x="0 : 0.49999998 : 1"
       inkscape:vp_y="0 : 999.99997 : 0"
       inkscape:vp_z="0.99999998 : 0.49999998 : 1"
       inkscape:persp3d-origin="0.49999999 : 0.33333332 : 1"
       id="perspective8703" />
    <inkscape:perspective
       sodipodi:type="inkscape:persp3d"
       inkscape:vp_x="0 : 0.49999998 : 1"
       inkscape:vp_y="0 : 999.99997 : 0"
       inkscape:vp_z="0.99999998 : 0.49999998 : 1"
       inkscape:persp3d-origin="0.49999999 : 0.33333332 : 1"
       id="perspective8703-4" />
    <inkscape:perspective
       sodipodi:type="inkscape:persp3d"
       inkscape:vp_x="0 : 0.49999998 : 1"
       inkscape:vp_y="0 : 999.99997 : 0"
       inkscape:vp_z="0.99999998 : 0.49999998 : 1"
       inkscape:persp3d-origin="0.49999999 : 0.33333332 : 1"
       id="perspective8703-8" />
    <inkscape:perspective
       sodipodi:type="inkscape:persp3d"
       inkscape:vp_x="0 : 0.49999998 : 1"
       inkscape:vp_y="0 : 999.99997 : 0"
       inkscape:vp_z="0.99999998 : 0.49999998 : 1"
       inkscape:persp3d-origin="0.49999999 : 0.33333332 : 1"
       id="perspective3357" />
    <inkscape:perspective
       sodipodi:type="inkscape:persp3d"
       inkscape:vp_x="0 : 0.49999998 : 1"
       inkscape:vp_y="0 : 999.99997 : 0"
       inkscape:vp_z="0.99999998 : 0.49999998 : 1"
       inkscape:persp3d-origin="0.49999999 : 0.33333332 : 1"
       id="perspective4149" />
    <inkscape:perspective
       sodipodi:type="inkscape:persp3d"
       inkscape:vp_x="0 : 0.49999998 : 1"
       inkscape:vp_y="0 : 999.99997 : 0"
       inkscape:vp_z="0.99999998 : 0.49999998 : 1"
       inkscape:persp3d-origin="0.49999999 : 0.33333332 : 1"
       id="perspective4181" />
    <inkscape:perspective
       sodipodi:type="inkscape:persp3d"
       inkscape:vp_x="0 : 0.49999998 : 1"
       inkscape:vp_y="0 : 999.99997 : 0"
       inkscape:vp_z="0.99999998 : 0.49999998 : 1"
       inkscape:persp3d-origin="0.49999999 : 0.33333332 : 1"
       id="perspective4619" />
    <inkscape:perspective
       sodipodi:type="inkscape:persp3d"
       inkscape:vp_x="0 : 196.99999 : 1"
       inkscape:vp_y="0 : 999.99997 : 0"
       inkscape:vp_z="334.99999 : 196.99999 : 1"
       inkscape:persp3d-origin="167.5 : 131.33333 : 1"
       id="perspective6673" />
    <inkscape:perspective
       sodipodi:type="inkscape:persp3d"
       inkscape:vp_x="0 : 0.49999998 : 1"
       inkscape:vp_y="0 : 999.99997 : 0"
       inkscape:vp_z="0.99999998 : 0.49999998 : 1"
       inkscape:persp3d-origin="0.49999999 : 0.33333332 : 1"
       id="perspective7558" />
  </defs>
  <sodipodi:namedview
     id="base"
     pagecolor="#ffffff"
     bordercolor="#666666"
     borderopacity="1.0"
     inkscape:pageopacity="1"
     inkscape:pageshadow="2"
     inkscape:zoom="1"
     inkscape:cx="-288.82384"
     inkscape:cy="74.567822"
     inkscape:document-units="mm"
     inkscape:current-layer="layer1"
     showgrid="false"
     units="cm"
     inkscape:pagecheckerboard="false"
     inkscape:window-width="1366"
     inkscape:window-height="671"
     inkscape:window-x="0"
     inkscape:window-y="27"
     inkscape:window-maximized="1"
     showguides="true"
     inkscape:guide-bbox="true" />
  <metadata
     id="metadata5">
    <rdf:RDF>
      <cc:Work
         rdf:about="">
        <dc:format>image/svg+xml</dc:format>
        <dc:type
           rdf:resource="http://purl.org/dc/dcmitype/StillImage" />
        <dc:title />
      </cc:Work>
    </rdf:RDF>
  </metadata>
  <g
     inkscape:label="Layer 1"
     inkscape:groupmode="layer"
     id="layer1"
     transform="translate(0,-267.00002)">
    <path
       style="fill:#000000;stroke-width:0.18566348"
       inkscape:connector-curvature="0"
       i:knockout="Off"
       d="m 11.665852,277.70734 c -0.277381,0.004 0.05217,0.14259 0.414401,0.19848 0.100444,-0.0784 0.190677,-0.15707 0.271626,-0.23394 -0.22521,0.0551 -0.45469,0.0564 -0.686027,0.0355"
       id="path12" />
    <path
       style="fill:#000000;stroke-width:0.18566348"
       inkscape:connector-curvature="0"
       i:knockout="Off"
       d="m 13.154316,277.3362 c 0.165798,-0.22818 0.286108,-0.47771 0.328625,-0.73578 -0.03732,0.1838 -0.136649,0.34255 -0.230966,0.51039 -0.518558,0.32658 -0.04902,-0.19384 -3.74e-4,-0.39194 -0.557362,0.70237 -0.07687,0.42109 -0.09729,0.61733"
       id="path14" />
    <path
       style="fill:#000000;stroke-width:0.18566348"
       inkscape:connector-curvature="0"
       i:knockout="Off"
       d="m 13.704437,275.90585 c 0.03379,-0.49962 -0.09822,-0.34143 -0.14259,-0.15113 0.05161,0.0271 0.09265,0.35239 0.14259,0.15113"
       id="path16" />
    <path
       style="fill:#000000;stroke-width:0.18566348"
       inkscape:connector-curvature="0"
       i:knockout="Off"
       d="m 10.613511,269.07733 c 0.14816,0.0264 0.320085,0.0468 0.295391,0.0822 0.162641,-0.0358 0.199217,-0.0681 -0.295391,-0.0822"
       id="path18" />
    <path
       style="fill:#000000;stroke-width:0.18566348"
       inkscape:connector-curvature="0"
       i:knockout="Off"
       d="m 10.909088,269.15958 -0.104158,0.0217 0.0971,-0.009 0.0071,-0.0128"
       id="path20" />
    <path
       style="fill:#000000;stroke-width:0.20701833"
       inkscape:connector-curvature="0"
       i:knockout="Off"
       d="m 16.385784,275.00155 c 0.01863,0.50016 -0.145949,0.7432 -0.294795,1.17298 l -0.267675,0.1331 c -0.218818,0.42522 0.02174,0.26995 -0.134975,0.60801 -0.341995,0.3037 -1.036335,0.95 -1.258671,1.00921 -0.16251,-0.003 0.109929,-0.19169 0.145533,-0.26518 -0.457303,0.31383 -0.367043,0.47118 -1.066559,0.66225 l -0.02029,-0.0457 c -1.724462,0.81151 -4.1200783,-0.7964 -4.0886117,-2.98997 -0.018218,0.13912 -0.052376,0.10437 -0.090468,0.16024 -0.089017,-1.12845 0.5212729,-2.26188 1.5505677,-2.7254 1.00673,-0.49808 2.18694,-0.29397 2.907572,0.37864 -0.395819,-0.5188 -1.184352,-1.06883 -2.118211,-1.01791 -0.915228,0.0149 -1.7716636,0.59643 -2.0573485,1.22804 -0.4686895,0.295 -0.5233423,1.13776 -0.7274623,1.29221 -0.2751275,2.02048 0.5169248,2.89307 1.8569548,3.92009 0.21033,0.14202 0.05921,0.16374 0.08736,0.27182 -0.44509,-0.20827 -0.8525028,-0.52293 -1.187872,-0.90819 0.1780356,0.26021 0.3699409,0.5132 0.618156,0.71193 -0.4200396,-0.14181 -0.9808519,-1.01708 -1.1441893,-1.05268 0.7235289,1.29551 2.9351053,2.27202 4.0937873,1.78739 -0.536177,0.0199 -1.217061,0.0112 -1.81907,-0.21157 -0.253598,-0.13022 -0.59704,-0.39955 -0.535557,-0.44985 1.580792,0.5902 3.213338,0.44673 4.580902,-0.64942 0.348204,-0.27119 0.72829,-0.73223 0.838217,-0.73845 -0.165407,0.24885 0.02837,0.11967 -0.09874,0.33932 0.346135,-0.55916 -0.150917,-0.22772 0.358142,-0.96554 l 0.187973,0.25877 c -0.07039,-0.46455 0.576546,-1.02804 0.510714,-1.76214 0.148432,-0.2244 0.165408,0.24181 0.0081,0.7581 0.218405,-0.57281 0.05776,-0.66494 0.113654,-1.13776 0.06024,0.15899 0.140358,0.3277 0.181141,0.4956 -0.142429,-0.55377 0.145534,-0.93221 0.217162,-1.25412 -0.0708,-0.0311 -0.219646,0.2447 -0.254011,-0.40907 0.0052,-0.28402 0.07929,-0.14885 0.107643,-0.21882 -0.05549,-0.0321 -0.201843,-0.24988 -0.290654,-0.66743 0.06397,-0.0984 0.17224,0.25443 0.260015,0.26871 -0.05652,-0.33185 -0.153607,-0.58503 -0.157747,-0.83987 -0.256704,-0.53617 -0.09088,0.0716 -0.298727,-0.2302 -0.273265,-0.85167 0.226476,-0.1977 0.260428,-0.58442 0.413623,0.59932 0.649417,1.52883 0.758102,1.91369 -0.08281,-0.46933 -0.216335,-0.92414 -0.379672,-1.36405 0.126074,0.0532 -0.202671,-0.96532 0.163751,-0.29086 -0.391057,-1.43774 -1.672294,-2.78129 -2.851263,-3.41145 0.143877,0.13187 0.325846,0.29748 0.260843,0.32356 -0.58669,-0.34882 -0.483595,-0.37635 -0.567644,-0.52376 -0.477178,-0.19438 -0.509058,0.0159 -0.824761,4.8e-4 -0.90053,-0.47782 -1.074012,-0.42709 -1.902706,-0.72603 l 0.03768,0.17639 c -0.596419,-0.19875 -0.69496,0.0749 -1.339408,4.5e-4 -0.03913,-0.0304 0.206604,-0.11094 0.409068,-0.14015 -0.576752,0.0761 -0.549841,-0.11387 -1.114172,0.0209 0.138908,-0.0975 0.286306,-0.1623 0.434531,-0.24511 -0.4701386,0.0286 -1.1228671,0.27368 -0.9214382,0.0505 -0.7670031,0.34242 -2.1293905,0.82291 -2.8939091,1.53981 l -0.024014,-0.16065 c -0.3502746,0.42046 -1.527588,1.25578 -1.6213673,1.80085 l -0.09378,0.0217 c -0.1819691,0.30866 -0.3001763,0.65831 -0.4446751,0.97568 -0.2382782,0.40638 -0.3494473,0.15651 -0.315496,0.22026 -0.4688965,0.95063 -0.7022062,1.74931 -0.9032209,2.40473 0.1432566,0.21427 0.00353,1.29013 0.05755,2.15113 -0.235173,4.25298 2.9847901,8.38197 6.5045149,9.33508 0.5158897,0.18486 1.2828937,0.17824 1.9354157,0.19646 -0.769695,-0.22027 -0.869063,-0.11655 -1.619299,-0.37802 -0.5409378,-0.25504 -0.6593522,-0.54591 -1.0427504,-0.87858 l 0.1517447,0.26808 C 8.4602905,284.34934 8.7747516,284.2862 8.1632191,284.09263 l 0.1620953,-0.21136 c -0.2436604,-0.0186 -0.6452758,-0.41031 -0.7549958,-0.6279 l -0.2666396,0.0103 C 6.9836289,282.86915 6.8128386,282.58408 6.8254666,282.3632 l -0.086119,0.1536 c -0.097506,-0.16747 -1.1781412,-1.48184 -0.6175359,-1.17586 -0.1041305,-0.0948 -0.2426251,-0.15464 -0.3927135,-0.4277 l 0.114067,-0.13021 c -0.2693307,-0.34718 -0.49643,-0.79205 -0.4790404,-0.94029 0.1438779,0.1942 0.2436605,0.23062 0.3426152,0.26395 -0.6812971,-1.69018 -0.7195959,-0.093 -1.2352781,-1.72041 l 0.1088916,-0.009 c -0.083429,-0.12649 -0.1345619,-0.26293 -0.2016361,-0.39727 l 0.047614,-0.47304 c -0.4902192,-0.56641 -0.1370456,-2.41073 -0.066038,-3.42201 0.04865,-0.41115 0.4092752,-0.84898 0.6831603,-1.53566 l -0.1668566,-0.0285 c 0.3192222,-0.55648 1.8221752,-2.2356 2.5185851,-2.14949 0.3372326,-0.42356 -0.067074,-10e-4 -0.1331129,-0.10804 0.7409188,-0.7666 0.9738143,-0.54157 1.4737633,-0.67965 0.5388687,-0.31984 -0.4626859,0.12504 -0.2072254,-0.12193 0.9322039,-0.23787 0.6603885,-0.54115 1.8762068,-0.66184 0.128352,0.0729 -0.297484,0.11262 -0.404306,0.20722 0.776319,-0.38008 2.4571,-0.29333 3.549329,0.21075 1.266331,0.59228 2.689996,2.3422 2.746306,3.98862 l 0.06397,0.0172 c -0.03229,0.6546 0.100192,1.41166 -0.129802,2.10684 l 0.155471,-0.32937"
       id="path22" />
    <path
       style="fill:#000000;stroke-width:0.18566348"
       inkscape:connector-curvature="0"
       i:knockout="Off"
       d="m 8.6374954,278.08795 -0.039175,0.19439 c 0.1825072,0.24786 0.3273247,0.51633 0.5599609,0.70942 -0.1674683,-0.32658 -0.2916771,-0.46156 -0.5207858,-0.90381"
       id="path24" />
    <path
       style="fill:#000000;stroke-width:0.18566348"
       inkscape:connector-curvature="0"
       i:knockout="Off"
       d="m 9.0684201,278.07124 c -0.096545,-0.10694 -0.153358,-0.23542 -0.2175977,-0.36315 0.061269,0.22483 0.1867775,0.41811 0.3031888,0.61491 l -0.085591,-0.25176"
       id="path26" />
    <path
       style="fill:#000000;stroke-width:0.18566348"
       inkscape:connector-curvature="0"
       i:knockout="Off"
       d="m 16.696219,276.41327 -0.04066,0.10249 c -0.07464,0.53062 -0.23635,1.05568 -0.483653,1.54267 0.273296,-0.51373 0.449491,-1.07573 0.524314,-1.64516"
       id="path28" />
    <path
       style="fill:#000000;stroke-width:0.18566348"
       inkscape:connector-curvature="0"
       i:knockout="Off"
       d="m 10.668654,268.94421 c 0.187334,-0.0685 0.460816,-0.0377 0.660219,-0.0828 -0.259558,0.0217 -0.517816,0.0347 -0.772732,0.0672 l 0.112513,0.0156"
       id="path30" />
    <path
       style="fill:#000000;stroke-width:0.18566348"
       inkscape:connector-curvature="0"
       i:knockout="Off"
       d="m 4.0829843,272.4462 c 0.04326,0.39992 -0.3007749,0.55532 0.076122,0.2913 0.202373,-0.45561 -0.078721,-0.12569 -0.076122,-0.2913"
       id="path32" />
    <path
       style="fill:#000000;stroke-width:0.18566348"
       inkscape:connector-curvature="0"
       i:knockout="Off"
       d="m 3.6396198,274.29801 c 0.087076,-0.2668 0.102672,-0.42685 0.135906,-0.5815 -0.240063,0.30708 -0.1106554,0.37262 -0.135906,0.5815"
       id="path34" />
    <g
       id="g127"
       transform="matrix(0.09896239,0,0,0.09896239,11.336734,278.25781)"
       style="fill:#000000">
      <path
         style="stroke-width:1.8120482;fill:#000000"
         id="path36"
         d="m -86.709828,111.50722 c -0.08154,0.0852 -0.08154,13.60124 -0.250063,17.12929 -0.166708,2.85217 -0.420395,8.98233 -6.465388,8.98233 -6.213513,0 -7.724761,-7.13766 -8.228511,-10.2417 -0.5871,-3.44289 -0.5871,-6.30049 -0.5871,-7.55624 0,-4.03181 0.25187,-15.28644 9.739756,-15.28644 2.855788,0 4.45039,0.8426 5.709763,1.51125 z m -24.348492,9.91009 c 0,23.67622 12.595547,23.67622 14.442024,23.67622 5.206015,0 8.565552,-2.85578 9.991634,-7.80811 l 0.16852,7.47107 c 1.596415,-0.0852 3.191017,-0.25187 5.793119,-0.25187 0.924144,0 1.677956,0 2.352038,0.0852 0.67227,0 1.342728,0.0815 2.098352,0.1667 -1.342728,-2.68545 -2.350227,-8.73044 -2.350227,-21.83336 0,-12.76226 0,-34.34013 1.090853,-40.890685 -3.020684,1.429706 -5.626409,2.353851 -11.336173,2.855788 2.266872,2.435393 2.266872,3.694767 2.266872,14.775441 -1.59279,-0.501937 -3.6096,-1.090853 -7.052491,-1.090853 -15.029131,0.0018 -17.464521,13.101109 -17.464521,22.844489"
         i:knockout="Off"
         inkscape:connector-curvature="0" />
      <path
         style="stroke-width:1.8120482;fill:#000000"
         id="path38"
         d="m -65.521549,117.13001 c 0.08517,-6.96914 1.513061,-13.18265 7.472887,-13.18265 6.550554,0 7.05068,7.2192 6.883971,13.18265 z m 22.668723,0.8426 c 0,-9.82493 -1.929831,-19.483143 -14.356858,-19.483143 -17.127479,0 -17.127479,18.981203 -17.127479,23.007573 0,17.04413 7.639595,23.76139 20.487017,23.76139 5.70614,0 8.480385,-0.83535 9.991633,-1.25937 -0.08335,-3.0225 0.335229,-4.95414 0.842603,-7.55624 -1.766747,1.09447 -4.033619,2.52056 -9.071113,2.52056 -13.099297,0 -13.267817,-11.92691 -13.267817,-16.04025 h 22.33893 l 0.163084,-4.95052"
         i:knockout="Off"
         inkscape:connector-curvature="0" />
      <path
         style="stroke-width:1.8120482;fill:#000000"
         id="path40"
         d="m -15.536199,121.58221 c 0,7.80812 -1.426082,18.30531 -11.165841,18.30531 -1.34454,0 -3.022497,-0.2555 -4.11335,-0.50556 -0.16852,-3.0225 -0.16852,-8.22851 -0.16852,-14.2735 0,-7.22283 0.753812,-10.99551 1.34454,-12.84743 1.761311,-5.95982 5.707952,-6.04137 6.461764,-6.04137 6.382033,0 7.641407,8.81562 7.641407,15.36255 z m -24.096617,9.15265 c 0,6.21533 0,9.73976 -1.007499,12.42522 3.442892,1.34454 7.72295,2.09835 12.847422,2.09835 3.274371,0 12.762255,0 17.8831035,-10.49357 2.4353928,-4.87079 3.2743711,-11.42134 3.2743711,-16.37548 0,-3.0225 -0.3370409,-9.65459 -2.7706217,-13.85492 -2.3484149,-3.94302 -6.1283469,-5.959827 -10.1565299,-5.959827 -8.061803,0 -10.412029,6.717267 -11.669591,10.160157 0,-4.28187 0.08154,-19.227646 0.752,-26.869053 -5.456077,2.520559 -8.817426,2.93733 -12.425214,3.274371 3.274371,1.340916 3.274371,6.887595 3.274371,24.941032 v 20.65372"
         i:knockout="Off"
         inkscape:connector-curvature="0" />
      <path
         style="stroke-width:1.8120482;fill:#000000"
         id="path42"
         d="m 9.506307,144.75649 c -1.6815807,-0.25187 -2.8594121,-0.42039 -5.2948049,-0.42039 -2.6818313,0 -4.53374455,0.17033 -6.4617638,0.42039 0.8389783,-1.59641 1.1742072,-2.35385 1.4260819,-7.80811 0.33704096,-7.4747 0.42039518,-27.45978 -0.16670844,-31.6583 C -1.4112834,102.09726 -2.1650955,101.59532 -3.3411148,100.75634 3.5428564,100.08407 5.4744997,99.582132 8.6637046,98.070884 7.9950588,101.76203 7.9062684,103.61394 7.9062684,109.23672 7.741372,138.20956 7.6562058,141.3136 9.506307,144.75649"
         i:knockout="Off"
         inkscape:connector-curvature="0" />
      <path
         style="stroke-width:1.8120482;fill:#000000"
         id="path44"
         d="m 36.393478,120.99148 c -0.166708,5.29118 -0.251875,8.98595 -1.681581,11.92328 -1.763122,3.77993 -4.700453,4.87078 -6.883971,4.87078 -5.04293,0 -6.130159,-4.1967 -6.130159,-8.31005 0,-7.89147 7.054304,-8.48401 10.241697,-8.48401 z m -23.092742,10.33049 c 0,5.29118 1.596414,10.57874 6.300492,12.84742 2.098351,0.92414 4.196703,0.92414 4.870785,0.92414 7.726574,0 10.326863,-5.71157 11.923277,-9.23782 -0.08517,3.69477 0,5.95983 0.251875,8.90078 1.511248,-0.0852 3.022496,-0.25187 5.543055,-0.25187 1.426082,0 2.770622,0.16671 4.196704,0.25187 -0.924145,-1.42608 -1.426082,-2.26868 -1.681581,-5.54305 -0.166708,-3.18921 -0.166708,-6.38022 -0.166708,-10.83061 l 0.08517,-17.1293 c 0,-6.38384 -1.681581,-12.680709 -14.277128,-12.680709 -8.310053,0 -13.179026,2.520559 -15.614419,3.779929 1.009311,1.84829 1.848289,3.43927 2.602101,7.05431 3.277995,-2.85579 7.559865,-4.36704 11.923277,-4.36704 6.972762,0 6.972762,4.61891 6.972762,11.16584 -1.596415,-0.0815 -2.940954,-0.24825 -5.209639,-0.24825 -10.667527,0.002 -17.720019,4.10973 -17.720019,15.36436"
         i:knockout="Off"
         inkscape:connector-curvature="0" />
      <path
         style="stroke-width:1.8120482;fill:#000000"
         id="path46"
         d="m 84.757045,136.44463 c 0.08517,2.85579 0.08517,5.87828 1.259373,8.31368 -1.850101,-0.16671 -2.940954,-0.4204 -6.380222,-0.4204 -2.016809,0 -3.107662,0.17033 -4.704077,0.4204 0.333417,-1.09086 0.505562,-1.51125 0.67227,-2.94096 0.251875,-1.92802 0.420395,-8.39522 0.420395,-10.6639 v -9.06749 c 0,-3.94664 0,-9.65822 -0.255498,-11.6714 -0.166709,-1.42609 -0.58348,-5.28756 -5.45789,-5.28756 -4.785619,0 -6.380221,3.52443 -6.969137,6.38022 -0.668646,2.93733 -0.668646,6.13016 -0.668646,18.55537 0.08154,10.74907 0.08154,11.75295 0.920521,14.6939 -1.426082,-0.1667 -3.189205,-0.33341 -5.707952,-0.33341 -2.01681,0 -3.359537,0.0815 -5.035682,0.33341 0.587104,-1.34454 0.924145,-2.01681 1.090853,-6.71726 0.170332,-4.61891 0.505561,-27.29126 -0.255499,-32.66217 -0.416771,-3.27799 -1.259373,-4.0318 -2.179894,-4.87078 6.802429,-0.33704 8.982323,-1.429709 11.084299,-2.516938 v 8.897158 c 1.005687,-2.60573 3.104039,-8.398845 11.502882,-8.398845 10.497195,0 10.578737,7.641405 10.663904,12.677085 v 25.27989"
         i:knockout="Off"
         inkscape:connector-curvature="0" />
      <path
         id="path48"
         d="m 10.214818,86.187472 -6.9546412,6.951017 -6.9510169,-6.951017 6.9510169,-6.951017 6.9546412,6.951017"
         i:knockout="Off"
         inkscape:connector-curvature="0"
         style="fill:#000000;stroke-width:1.8120482" />
    </g>
    <g
       id="g5323"
       transform="translate(-0.05454782)"
       style="fill:#000000">
      <flowRoot
         transform="matrix(0.01568197,0,0,0.01568197,-3.6902202,253.6999)"
         style="font-style:normal;font-variant:normal;font-weight:normal;font-stretch:normal;font-size:40px;line-height:1.25;font-family:sans-serif;-inkscape-font-specification:sans-serif;letter-spacing:0px;word-spacing:0px;opacity:1;fill:#000000;fill-opacity:1;stroke:none"
         id="flowRoot104"
         xml:space="preserve"><flowRegion
           id="flowRegion106"
           style="fill:#000000;fill-opacity:1"><rect
             y="2480.0681"
             x="460.6326"
             height="270.07803"
             width="1122.2246"
             id="rect108"
             style="fill:#000000;fill-opacity:1" /></flowRegion><flowPara
           style="font-style:normal;font-variant:normal;font-weight:normal;font-stretch:normal;font-size:226.92164612px;line-height:1.25;font-family:Prociono;-inkscape-font-specification:Prociono;fill:#000000;fill-opacity:1"
           id="flowPara110">Day</flowPara></flowRoot>      <flowRoot
         xml:space="preserve"
         id="flowRoot4614"
         style="font-style:normal;font-variant:normal;font-weight:normal;font-stretch:normal;font-size:40px;line-height:1.25;font-family:sans-serif;-inkscape-font-specification:sans-serif;letter-spacing:0px;word-spacing:0px;opacity:1;fill:#000000;fill-opacity:1;stroke:none"
         transform="matrix(0.01201531,0,0,0.01201531,-10.201166,269.47973)"><flowRegion
           id="flowRegion4616"
           style="fill:#000000;fill-opacity:1"><rect
             id="rect4618"
             width="737.1427"
             height="361.47867"
             x="1725.7142"
             y="1955.8605"
             style="fill:#000000;fill-opacity:1" /></flowRegion><flowPara
           id="flowPara4620"
           style="font-style:normal;font-variant:normal;font-weight:normal;font-stretch:normal;font-size:266.66665649px;font-family:Prociono;-inkscape-font-specification:Prociono;fill:#000000;fill-opacity:1">2017</flowPara></flowRoot>    </g>
    <g
       transform="matrix(0.26458334,0,0,0.26458334,1661.0159,-3180.0046)"
       id="g4948"
       style="fill:#000000">
      <path
         inkscape:connector-curvature="0"
         style="fill:#000000"
         d=""
         id="path4289" />
      <path
         inkscape:connector-curvature="0"
         style="fill:#000000"
         d=""
         id="path4506" />
      <flowRoot
         xml:space="preserve"
         id="flowRoot8589"
         style="font-style:normal;font-weight:normal;line-height:0.01%;font-family:'Bitstream Vera Sans';fill:#000000;fill-opacity:1;stroke:none;stroke-width:1px;stroke-linecap:butt;stroke-linejoin:miter;stroke-opacity:1"><flowRegion
           id="flowRegion8591"
           style="fill:#000000"><rect
             id="rect8593"
             width="152.94118"
             height="20.588236"
             x="-10067.647"
             y="25495.354"
             style="fill:#000000" /></flowRegion><flowPara
           id="flowPara8595"
           style="font-size:13px;line-height:1.25;fill:#000000"> </flowPara></flowRoot>    </g>
  </g>
</svg>
