<?xml version="1.0" encoding="UTF-8" standalone="no"?>
<!-- Created with Inkscape (http://www.inkscape.org/) -->

<svg
   xmlns:dc="http://purl.org/dc/elements/1.1/"
   xmlns:cc="http://creativecommons.org/ns#"
   xmlns:rdf="http://www.w3.org/1999/02/22-rdf-syntax-ns#"
   xmlns:svg="http://www.w3.org/2000/svg"
   xmlns="http://www.w3.org/2000/svg"
   xmlns:sodipodi="http://sodipodi.sourceforge.net/DTD/sodipodi-0.dtd"
   xmlns:inkscape="http://www.inkscape.org/namespaces/inkscape"
   id="svg2"
   version="1.1"
   inkscape:version="0.48.0 r9654"
   width="1024"
   height="663"
   sodipodi:docname="LogoGCC.svg">
  <metadata
     id="metadata8">
    <rdf:RDF>
      <cc:Work
         rdf:about="">
        <dc:format>image/svg+xml</dc:format>
        <dc:type
           rdf:resource="http://purl.org/dc/dcmitype/StillImage" />
        <dc:title></dc:title>
      </cc:Work>
    </rdf:RDF>
  </metadata>
  <defs
     id="defs6">
    <inkscape:path-effect
       effect="bend_path"
       id="path-effect4298"
       is_visible="true"
       bendpath="m -5424.4721,25679.516 c -47.7004,70.758 208.3815,111.327 210.2834,2.912"
       prop_scale="1"
       scale_y_rel="false"
       vertical="false"
       bendpath-nodetypes="cc" />
    <inkscape:perspective
       sodipodi:type="inkscape:persp3d"
       inkscape:vp_x="0 : 0.5 : 1"
       inkscape:vp_y="0 : 1000 : 0"
       inkscape:vp_z="1 : 0.5 : 1"
       inkscape:persp3d-origin="0.5 : 0.33333333 : 1"
       id="perspective10" />
    <inkscape:perspective
       id="perspective2996"
       inkscape:persp3d-origin="0.5 : 0.33333333 : 1"
       inkscape:vp_z="1 : 0.5 : 1"
       inkscape:vp_y="0 : 1000 : 0"
       inkscape:vp_x="0 : 0.5 : 1"
       sodipodi:type="inkscape:persp3d" />
    <inkscape:perspective
       id="perspective3174"
       inkscape:persp3d-origin="0.5 : 0.33333333 : 1"
       inkscape:vp_z="1 : 0.5 : 1"
       inkscape:vp_y="0 : 1000 : 0"
       inkscape:vp_x="0 : 0.5 : 1"
       sodipodi:type="inkscape:persp3d" />
    <inkscape:perspective
       id="perspective3183"
       inkscape:persp3d-origin="0.5 : 0.33333333 : 1"
       inkscape:vp_z="1 : 0.5 : 1"
       inkscape:vp_y="0 : 1000 : 0"
       inkscape:vp_x="0 : 0.5 : 1"
       sodipodi:type="inkscape:persp3d" />
    <inkscape:perspective
       id="perspective4281"
       inkscape:persp3d-origin="0.5 : 0.33333333 : 1"
       inkscape:vp_z="1 : 0.5 : 1"
       inkscape:vp_y="0 : 1000 : 0"
       inkscape:vp_x="0 : 0.5 : 1"
       sodipodi:type="inkscape:persp3d" />
    <inkscape:perspective
       id="perspective4453"
       inkscape:persp3d-origin="0.5 : 0.33333333 : 1"
       inkscape:vp_z="1 : 0.5 : 1"
       inkscape:vp_y="0 : 1000 : 0"
       inkscape:vp_x="0 : 0.5 : 1"
       sodipodi:type="inkscape:persp3d" />
    <inkscape:perspective
       id="perspective4609"
       inkscape:persp3d-origin="0.5 : 0.33333333 : 1"
       inkscape:vp_z="1 : 0.5 : 1"
       inkscape:vp_y="0 : 1000 : 0"
       inkscape:vp_x="0 : 0.5 : 1"
       sodipodi:type="inkscape:persp3d" />
    <inkscape:perspective
       id="perspective4925"
       inkscape:persp3d-origin="0.5 : 0.33333333 : 1"
       inkscape:vp_z="1 : 0.5 : 1"
       inkscape:vp_y="0 : 1000 : 0"
       inkscape:vp_x="0 : 0.5 : 1"
       sodipodi:type="inkscape:persp3d" />
    <inkscape:perspective
       id="perspective5252"
       inkscape:persp3d-origin="0.5 : 0.33333333 : 1"
       inkscape:vp_z="1 : 0.5 : 1"
       inkscape:vp_y="0 : 1000 : 0"
       inkscape:vp_x="0 : 0.5 : 1"
       sodipodi:type="inkscape:persp3d" />
    <inkscape:perspective
       id="perspective5719"
       inkscape:persp3d-origin="0.5 : 0.33333333 : 1"
       inkscape:vp_z="1 : 0.5 : 1"
       inkscape:vp_y="0 : 1000 : 0"
       inkscape:vp_x="0 : 0.5 : 1"
       sodipodi:type="inkscape:persp3d" />
    <inkscape:perspective
       id="perspective6147"
       inkscape:persp3d-origin="0.5 : 0.33333333 : 1"
       inkscape:vp_z="1 : 0.5 : 1"
       inkscape:vp_y="0 : 1000 : 0"
       inkscape:vp_x="0 : 0.5 : 1"
       sodipodi:type="inkscape:persp3d" />
    <inkscape:perspective
       id="perspective6236"
       inkscape:persp3d-origin="0.5 : 0.33333333 : 1"
       inkscape:vp_z="1 : 0.5 : 1"
       inkscape:vp_y="0 : 1000 : 0"
       inkscape:vp_x="0 : 0.5 : 1"
       sodipodi:type="inkscape:persp3d" />
    <inkscape:perspective
       id="perspective6291"
       inkscape:persp3d-origin="0.5 : 0.33333333 : 1"
       inkscape:vp_z="1 : 0.5 : 1"
       inkscape:vp_y="0 : 1000 : 0"
       inkscape:vp_x="0 : 0.5 : 1"
       sodipodi:type="inkscape:persp3d" />
    <inkscape:perspective
       id="perspective7149"
       inkscape:persp3d-origin="0.5 : 0.33333333 : 1"
       inkscape:vp_z="1 : 0.5 : 1"
       inkscape:vp_y="0 : 1000 : 0"
       inkscape:vp_x="0 : 0.5 : 1"
       sodipodi:type="inkscape:persp3d" />
    <inkscape:perspective
       id="perspective7735"
       inkscape:persp3d-origin="0.5 : 0.33333333 : 1"
       inkscape:vp_z="1 : 0.5 : 1"
       inkscape:vp_y="0 : 1000 : 0"
       inkscape:vp_x="0 : 0.5 : 1"
       sodipodi:type="inkscape:persp3d" />
    <inkscape:perspective
       id="perspective8267"
       inkscape:persp3d-origin="0.5 : 0.33333333 : 1"
       inkscape:vp_z="1 : 0.5 : 1"
       inkscape:vp_y="0 : 1000 : 0"
       inkscape:vp_x="0 : 0.5 : 1"
       sodipodi:type="inkscape:persp3d" />
    <inkscape:perspective
       id="perspective8579"
       inkscape:persp3d-origin="0.5 : 0.33333333 : 1"
       inkscape:vp_z="1 : 0.5 : 1"
       inkscape:vp_y="0 : 1000 : 0"
       inkscape:vp_x="0 : 0.5 : 1"
       sodipodi:type="inkscape:persp3d" />
    <inkscape:perspective
       id="perspective8703"
       inkscape:persp3d-origin="0.5 : 0.33333333 : 1"
       inkscape:vp_z="1 : 0.5 : 1"
       inkscape:vp_y="0 : 1000 : 0"
       inkscape:vp_x="0 : 0.5 : 1"
       sodipodi:type="inkscape:persp3d" />
    <inkscape:perspective
       id="perspective8703-4"
       inkscape:persp3d-origin="0.5 : 0.33333333 : 1"
       inkscape:vp_z="1 : 0.5 : 1"
       inkscape:vp_y="0 : 1000 : 0"
       inkscape:vp_x="0 : 0.5 : 1"
       sodipodi:type="inkscape:persp3d" />
    <inkscape:perspective
       id="perspective8703-8"
       inkscape:persp3d-origin="0.5 : 0.33333333 : 1"
       inkscape:vp_z="1 : 0.5 : 1"
       inkscape:vp_y="0 : 1000 : 0"
       inkscape:vp_x="0 : 0.5 : 1"
       sodipodi:type="inkscape:persp3d" />
    <inkscape:perspective
       id="perspective3357"
       inkscape:persp3d-origin="0.5 : 0.33333333 : 1"
       inkscape:vp_z="1 : 0.5 : 1"
       inkscape:vp_y="0 : 1000 : 0"
       inkscape:vp_x="0 : 0.5 : 1"
       sodipodi:type="inkscape:persp3d" />
    <inkscape:perspective
       id="perspective4149"
       inkscape:persp3d-origin="0.5 : 0.33333333 : 1"
       inkscape:vp_z="1 : 0.5 : 1"
       inkscape:vp_y="0 : 1000 : 0"
       inkscape:vp_x="0 : 0.5 : 1"
       sodipodi:type="inkscape:persp3d" />
    <inkscape:perspective
       id="perspective4181"
       inkscape:persp3d-origin="0.5 : 0.33333333 : 1"
       inkscape:vp_z="1 : 0.5 : 1"
       inkscape:vp_y="0 : 1000 : 0"
       inkscape:vp_x="0 : 0.5 : 1"
       sodipodi:type="inkscape:persp3d" />
    <inkscape:perspective
       id="perspective4619"
       inkscape:persp3d-origin="0.5 : 0.33333333 : 1"
       inkscape:vp_z="1 : 0.5 : 1"
       inkscape:vp_y="0 : 1000 : 0"
       inkscape:vp_x="0 : 0.5 : 1"
       sodipodi:type="inkscape:persp3d" />
    <inkscape:perspective
       id="perspective6673"
       inkscape:persp3d-origin="167.5 : 131.33333 : 1"
       inkscape:vp_z="335 : 197 : 1"
       inkscape:vp_y="0 : 1000 : 0"
       inkscape:vp_x="0 : 197 : 1"
       sodipodi:type="inkscape:persp3d" />
    <inkscape:perspective
       id="perspective7558"
       inkscape:persp3d-origin="0.5 : 0.33333333 : 1"
       inkscape:vp_z="1 : 0.5 : 1"
       inkscape:vp_y="0 : 1000 : 0"
       inkscape:vp_x="0 : 0.5 : 1"
       sodipodi:type="inkscape:persp3d" />
  </defs>
  <sodipodi:namedview
     pagecolor="#ffffff"
     bordercolor="#666666"
     borderopacity="1"
     objecttolerance="10"
     gridtolerance="10"
     guidetolerance="10"
     inkscape:pageopacity="0"
     inkscape:pageshadow="2"
     inkscape:window-width="1366"
     inkscape:window-height="695"
     id="namedview4"
     showgrid="false"
     showguides="true"
     inkscape:guide-bbox="true"
     inkscape:zoom="0.17"
     inkscape:cx="-1125.5294"
     inkscape:cy="-422.90189"
     inkscape:window-x="0"
     inkscape:window-y="25"
     inkscape:window-maximized="1"
     inkscape:current-layer="svg2" />
  <path
     style="fill:#000000"
     d=""
     id="path4289" />
  <path
     style="fill:#000000"
     d=""
     id="path4506" />
  <flowRoot
     xml:space="preserve"
     id="flowRoot8589"
     style="fill:black;stroke:none;stroke-opacity:1;stroke-width:1px;stroke-linejoin:miter;stroke-linecap:butt;fill-opacity:1;font-family:Bitstream Vera Sans;font-style:normal;font-weight:normal;font-size:13"><flowRegion
       id="flowRegion8591"><rect
         id="rect8593"
         width="152.94118"
         height="20.588236"
         x="-10067.647"
         y="25495.354" /></flowRegion><flowPara
       id="flowPara8595" /></flowRoot>  <g
     id="g5148"
     transform="translate(9221.0904,-28316.141)">
    <g
       transform="matrix(3.3748657,0,0,3.3748657,23287.443,-65359.329)"
       id="g5140">
      <path
         style="font-size:79.39871216px;font-style:normal;font-variant:normal;font-weight:normal;font-stretch:normal;text-align:start;line-height:100%;writing-mode:lr-tb;text-anchor:start;fill:#57756c;fill-opacity:1;stroke:none;font-family:Ubuntu;-inkscape-font-specification:Ubuntu"
         d="m -9576.8074,27845.898 c -3.6523,0 -7.1149,0.636 -10.3437,1.907 -3.176,1.271 -5.9618,3.127 -8.3437,5.562 -2.3821,2.435 -4.2583,5.431 -5.6876,9.031 -1.3762,3.546 -2.0937,7.614 -2.0937,12.219 0,4.605 0.6262,8.704 1.8437,12.25 1.2704,3.547 3.0365,6.534 5.3126,8.969 2.276,2.434 5.0115,4.292 8.1874,5.562 3.176,1.271 6.6984,1.907 10.5626,1.907 1.9055,0 3.7723,-0.101 5.625,-0.313 1.8526,-0.158 3.5586,-0.391 5.0937,-0.656 1.588,-0.264 2.9604,-0.517 4.125,-0.781 1.2174,-0.264 2.146,-0.508 2.7813,-0.719 l 0,-25.719 -0.063,0 0,-3.719 -17.0312,0 0,7.719 9.375,0 0,16.469 c -0.6881,0.212 -1.8183,0.454 -3.4062,0.719 -1.5352,0.211 -3.402,0.313 -5.625,0.312 -3.1231,0 -5.8586,-0.536 -8.1876,-1.594 -2.276,-1.059 -4.1932,-2.531 -5.7812,-4.437 -1.535,-1.958 -2.7061,-4.269 -3.5,-6.969 -0.7411,-2.699 -1.125,-5.718 -1.125,-9 0,-3.388 0.4438,-6.425 1.3438,-9.125 0.8998,-2.752 2.162,-5.063 3.75,-6.969 1.6409,-1.905 3.5989,-3.369 5.875,-4.375 2.3289,-1.005 4.8819,-1.5 7.6874,-1.5 2.6467,0 5.2405,0.344 7.7813,1.031 2.5407,0.635 4.5899,1.432 6.125,2.438 l 2.4687,-6.406 c -0.3176,-0.212 -0.9439,-0.545 -1.8437,-0.969 -0.847,-0.423 -1.9675,-0.827 -3.3437,-1.25 -1.3763,-0.424 -3.0417,-0.807 -5,-1.125 -1.9057,-0.317 -4.0747,-0.469 -6.5626,-0.469 z"
         id="path5118"
         inkscape:connector-curvature="0" />
      <path
         d="m -9523.722,27903.374 c -3.8641,0 -7.3841,-0.635 -10.5601,-1.905 -3.1759,-1.271 -5.9019,-3.123 -8.178,-5.558 -2.2761,-2.435 -4.0494,-5.426 -5.3197,-8.972 -1.2175,-3.6 -1.8262,-7.702 -1.8262,-12.307 0,-4.605 0.6881,-8.681 2.0644,-12.227 1.4291,-3.6 3.3347,-6.617 5.7167,-9.052 2.3819,-2.435 5.1609,-4.287 8.3368,-5.558 3.1759,-1.27 6.5636,-1.905 10.1631,-1.905 2.276,0 4.3139,0.159 6.1137,0.476 1.8526,0.318 3.4405,0.688 4.7639,1.112 1.3762,0.423 2.4878,0.847 3.3347,1.27 0.8469,0.424 1.4292,0.741 1.7468,0.953 l -2.2232,6.352 c -0.4764,-0.318 -1.1645,-0.662 -2.0643,-1.032 -0.8999,-0.371 -1.9321,-0.741 -3.0966,-1.112 -1.1116,-0.37 -2.3555,-0.662 -3.7317,-0.873 -1.3234,-0.265 -2.6731,-0.397 -4.0494,-0.397 -2.9113,0 -5.5314,0.503 -7.8604,1.508 -2.3291,1.006 -4.314,2.462 -5.9549,4.367 -1.641,1.906 -2.9113,4.235 -3.8112,6.987 -0.8469,2.7 -1.2704,5.743 -1.2703,9.131 -10e-5,3.282 0.3705,6.273 1.1115,8.972 0.794,2.7 1.9585,5.029 3.4936,6.987 1.535,1.906 3.4406,3.388 5.7167,4.447 2.329,1.058 5.0285,1.588 8.0987,1.587 3.5464,0 6.4841,-0.37 8.8132,-1.111 2.329,-0.741 4.0758,-1.403 5.2403,-1.985 l 1.985,6.352 c -0.3706,0.265 -1.0322,0.609 -1.985,1.032 -0.9528,0.371 -2.1438,0.741 -3.5729,1.112 -1.4292,0.37 -3.0966,0.688 -5.0021,0.952 -1.9056,0.265 -3.97,0.397 -6.1931,0.397"
         style="font-size:79.39871216px;font-style:normal;font-variant:normal;font-weight:normal;font-stretch:normal;text-align:start;line-height:100%;writing-mode:lr-tb;text-anchor:start;fill:#57756c;fill-opacity:1;stroke:none;font-family:Ubuntu;-inkscape-font-specification:Ubuntu"
         id="path5120"
         inkscape:connector-curvature="0" />
      <path
         d="m -9475.8037,27903.374 c -3.8641,0 -7.3841,-0.635 -10.56,-1.905 -3.176,-1.271 -5.902,-3.123 -8.1781,-5.558 -2.2761,-2.435 -4.0493,-5.426 -5.3197,-8.972 -1.2174,-3.6 -1.8262,-7.702 -1.8262,-12.307 0,-4.605 0.6882,-8.681 2.0644,-12.227 1.4292,-3.6 3.3347,-6.617 5.7167,-9.052 2.382,-2.435 5.1609,-4.287 8.3369,-5.558 3.1759,-1.27 6.5636,-1.905 10.163,-1.905 2.2761,0 4.314,0.159 6.1137,0.476 1.8526,0.318 3.4406,0.688 4.7639,1.112 1.3762,0.423 2.4878,0.847 3.3348,1.27 0.8469,0.424 1.4291,0.741 1.7468,0.953 l -2.2232,6.352 c -0.4764,-0.318 -1.1646,-0.662 -2.0644,-1.032 -0.8999,-0.371 -1.932,-0.741 -3.0965,-1.112 -1.1116,-0.37 -2.3556,-0.662 -3.7318,-0.873 -1.3233,-0.265 -2.6731,-0.397 -4.0493,-0.397 -2.9113,0 -5.5315,0.503 -7.8605,1.508 -2.329,1.006 -4.314,2.462 -5.9549,4.367 -1.6409,1.906 -2.9113,4.235 -3.8111,6.987 -0.8469,2.7 -1.2704,5.743 -1.2704,9.131 0,3.282 0.3705,6.273 1.1116,8.972 0.794,2.7 1.9585,5.029 3.4935,6.987 1.5351,1.906 3.4406,3.388 5.7167,4.447 2.329,1.058 5.0286,1.588 8.0987,1.587 3.5465,0 6.4842,-0.37 8.8133,-1.111 2.329,-0.741 4.0757,-1.403 5.2403,-1.985 l 1.985,6.352 c -0.3706,0.265 -1.0323,0.609 -1.985,1.032 -0.9528,0.371 -2.1438,0.741 -3.573,1.112 -1.4292,0.37 -3.0965,0.688 -5.0021,0.952 -1.9056,0.265 -3.9699,0.397 -6.1931,0.397"
         style="font-size:79.39871216px;font-style:normal;font-variant:normal;font-weight:normal;font-stretch:normal;text-align:start;line-height:100%;writing-mode:lr-tb;text-anchor:start;fill:#57756c;fill-opacity:1;stroke:none;font-family:Ubuntu;-inkscape-font-specification:Ubuntu"
         id="path5122"
         inkscape:connector-curvature="0" />
      <path
         d="m -9437.2122,27896.705 c 8.0457,0 12.0686,-2.753 12.0686,-8.258 0,-1.693 -0.3705,-3.123 -1.1116,-4.287 -0.6881,-1.218 -1.6409,-2.25 -2.8583,-3.097 -1.2175,-0.899 -2.6202,-1.667 -4.2081,-2.302 -1.5351,-0.635 -3.176,-1.271 -4.9228,-1.906 -2.0114,-0.688 -3.917,-1.455 -5.7167,-2.302 -1.7997,-0.9 -3.3612,-1.932 -4.6845,-3.097 -1.3233,-1.217 -2.382,-2.646 -3.1759,-4.287 -0.7411,-1.641 -1.1116,-3.626 -1.1116,-5.955 0,-4.817 1.6409,-8.575 4.9227,-11.275 3.2818,-2.699 7.8075,-4.049 13.5772,-4.049 3.3347,0 6.3518,0.37 9.0514,1.111 2.7525,0.688 4.7639,1.456 6.0343,2.303 l -2.4613,6.272 c -1.1116,-0.688 -2.779,-1.349 -5.0021,-1.985 -2.1703,-0.688 -4.7111,-1.032 -7.6223,-1.032 -1.4822,0 -2.8584,0.159 -4.1288,0.477 -1.2704,0.317 -2.3819,0.794 -3.3347,1.429 -0.9528,0.635 -1.7203,1.455 -2.3026,2.461 -0.5293,0.953 -0.794,2.091 -0.794,3.414 0,1.482 0.2912,2.726 0.8734,3.732 0.5823,1.006 1.4027,1.906 2.4614,2.7 1.0586,0.741 2.2761,1.429 3.6523,2.064 1.4292,0.635 2.9907,1.27 4.6846,1.906 2.3819,0.952 4.5521,1.905 6.5107,2.858 2.0114,0.953 3.7317,2.091 5.1609,3.414 1.482,1.323 2.6201,2.911 3.4141,4.764 0.794,1.8 1.191,3.996 1.191,6.59 0,4.817 -1.7733,8.522 -5.3197,11.116 -3.4936,2.594 -8.4428,3.89 -14.8476,3.89 -2.1702,0 -4.1817,-0.158 -6.0343,-0.476 -1.7997,-0.265 -3.4141,-0.582 -4.8433,-0.953 -1.4292,-0.423 -2.6731,-0.847 -3.7317,-1.27 -1.0058,-0.477 -1.7998,-0.874 -2.382,-1.191 l 2.3026,-6.352 c 1.2174,0.688 3.07,1.456 5.5579,2.303 2.4878,0.846 5.5314,1.27 9.1308,1.27"
         style="font-size:79.39871216px;font-style:normal;font-variant:normal;font-weight:normal;font-stretch:normal;text-align:start;line-height:100%;writing-mode:lr-tb;text-anchor:start;fill:#d4aa00;fill-opacity:1;stroke:none;font-family:Ubuntu;-inkscape-font-specification:Ubuntu"
         id="path5124"
         inkscape:connector-curvature="0" />
      <path
         d="m -9362.3268,27874.632 c 0,4.764 -0.7411,8.919 -2.2231,12.466 -1.4822,3.493 -3.573,6.404 -6.2725,8.734 -2.6996,2.276 -5.9285,3.996 -9.6867,5.16 -3.7582,1.112 -7.887,1.668 -12.3862,1.668 -2.2232,0 -4.6845,-0.106 -7.3841,-0.318 -2.6466,-0.159 -5.055,-0.503 -7.2253,-1.032 l 0,-53.356 c 2.1703,-0.529 4.5787,-0.873 7.2253,-1.032 2.6996,-0.212 5.1609,-0.318 7.3841,-0.318 4.4992,0 8.628,0.583 12.3862,1.747 3.7582,1.112 6.9871,2.832 9.6867,5.161 2.6995,2.276 4.7903,5.187 6.2725,8.734 1.482,3.493 2.2231,7.622 2.2231,12.386 m -29.9333,21.279 c 7.3047,0 12.7567,-1.853 16.3561,-5.558 3.5994,-3.758 5.3991,-8.999 5.3991,-15.721 0,-6.722 -1.7997,-11.936 -5.3991,-15.641 -3.5994,-3.759 -9.0514,-5.638 -16.3561,-5.638 -2.1702,0 -3.8641,0.03 -5.0815,0.08 -1.1645,0.05 -1.985,0.106 -2.4614,0.158 l 0,42.082 c 0.4764,0.05 1.2969,0.106 2.4614,0.159 1.2174,0.05 2.9113,0.08 5.0815,0.08"
         style="font-size:79.39871216px;font-style:normal;font-variant:normal;font-weight:normal;font-stretch:normal;text-align:start;line-height:100%;writing-mode:lr-tb;text-anchor:start;fill:#d4aa00;fill-opacity:1;stroke:none;font-family:Ubuntu;-inkscape-font-specification:Ubuntu"
         id="path5126"
         inkscape:connector-curvature="0" />
    </g>
    <path
       inkscape:connector-curvature="0"
       sodipodi:nodetypes="ccscssccccssssssscc"
       id="path4110"
       d="m -8423.3258,28442.154 c 32.5158,3.891 29.6779,3.301 21.7483,29.692 -8.6606,35.652 -5.363,54.875 -2.5278,76.593 7.1804,54.99 126.3189,92.694 50.9774,70.318 -37.7259,-10.053 -52.3722,-28.811 -57.7355,-39.529 -5.8716,-11.735 -16.4295,-23.088 -11.0601,-90.089 3.9536,-49.331 21.2957,-34.663 -6.2314,-40.266 -99.0668,12.005 -61.0952,3.075 4.8291,-6.719 z m -103.1123,62.276 -12.6247,27.738 12.8789,6.193 c 29.5675,14.215 62.7769,28.261 61.053,29.986 -0.8721,0.874 -14.108,-2.72 -29.415,-8.005 -15.3071,-5.282 -41.5254,-9.673 -58.2566,-9.75 -21.6022,-0.101 -35.1843,2.744 -46.8853,9.878 -9.0629,5.525 -16.4863,8.16 -16.4863,5.845 0,-7.391 17.5264,-18.477 36.3079,-25.666 25.4748,-9.753 36.7732,-4.448 49.9456,-42.553 7.7193,-24.343 15.6317,-31.899 3.4825,6.334 z"
       style="fill:#d4aa00;fill-opacity:1" />
  </g>
</svg>
